<svg width="40" height="40" viewBox="0 0 40 40" fill="none" xmlns="http://www.w3.org/2000/svg">
<line y1="-1.5" x2="27.1044" y2="-1.5" transform="matrix(0.707141 0.707072 -0.563714 0.82597 0.833313 4.16667)" stroke="white" stroke-width="3"/>
<line y1="-1.5" x2="27.1058" y2="-1.5" transform="matrix(0.707107 -0.707107 0.563751 0.825945 20 23.3333)" stroke="white" stroke-width="3"/>
<path d="M5.85938 40H34.1406C37.3715 40 40 37.3715 40 34.1406V5.85938C40 2.62848 37.3715 0 34.1406 0H5.85938C2.62848 0 0 2.62848 0 5.85938V34.1406C0 37.3715 2.62848 40 5.85938 40ZM2.34375 5.85938C2.34375 3.9209 3.9209 2.34375 5.85938 2.34375H34.1406C36.0791 2.34375 37.6562 3.9209 37.6562 5.85938V34.1406C37.6562 36.0791 36.0791 37.6562 34.1406 37.6562H5.85938C3.9209 37.6562 2.34375 36.0791 2.34375 34.1406V5.85938Z" fill="#18A0FB"/>
</svg>
