<svg width="40" height="40" viewBox="0 0 40 40" fill="none" xmlns="http://www.w3.org/2000/svg">
<path d="M5.85938 40H34.1406C37.3715 40 40 37.3715 40 34.1406V5.85938C40 2.62848 37.3715 0 34.1406 0H5.85938C2.62848 0 0 2.62848 0 5.85938V34.1406C0 37.3715 2.62848 40 5.85938 40ZM2.34375 5.85938C2.34375 3.9209 3.9209 2.34375 5.85938 2.34375H34.1406C36.0791 2.34375 37.6562 3.9209 37.6562 5.85938V34.1406C37.6562 36.0791 36.0791 37.6562 34.1406 37.6562H5.85938C3.9209 37.6562 2.34375 36.0791 2.34375 34.1406V5.85938Z" fill="#18A0FB"/>
<g clip-path="url(#clip0)">
<path d="M10.51 7.21669C9.55668 7.21669 8.69 7.56337 8.04 8.21337C7.34668 8.90669 7 9.77332 7 10.6833C7 11.6366 7.39 12.5033 8.04 13.1533C8.69 13.8033 9.6 14.1933 10.4667 14.15C10.4667 14.15 10.51 14.15 10.5534 14.15C11.4201 14.15 12.2434 13.8033 12.8934 13.1533C13.5434 12.5033 13.9334 11.6366 13.9334 10.6833C13.9767 9.77332 13.5867 8.90664 12.9367 8.25664C12.2867 7.56332 11.42 7.21669 10.51 7.21669ZM12.2867 12.5467C11.81 13.0234 11.16 13.3267 10.4667 13.2834C9.81668 13.2834 9.12337 13.0234 8.64668 12.5467C8.12668 12.07 7.86668 11.3767 7.86668 10.6834C7.86668 9.99006 8.12668 9.34006 8.64668 8.82006C9.12337 8.34337 9.77337 8.08337 10.51 8.08337C11.16 8.08337 11.81 8.34337 12.2867 8.82006C12.8067 9.34006 13.0667 9.99006 13.0667 10.6834C13.0667 11.3767 12.8067 12.07 12.2867 12.5467Z" fill="white"/>
<path d="M12.2 15.0167H8.68997C7.99666 15.0167 7.43329 15.58 7.43329 16.3167V31.4834C7.43329 32.1767 8.03997 32.7834 8.73329 32.7834H12.2C12.8933 32.7834 13.5 32.1767 13.5 31.5267V16.3167C13.5 15.6233 12.8933 15.0167 12.2 15.0167ZM12.6333 31.5267C12.6333 31.7434 12.4166 31.9167 12.2 31.9167H8.73329C8.5166 31.9167 8.29997 31.7 8.29997 31.4834V16.3167C8.29997 16.1 8.47329 15.8834 8.68997 15.8834H12.2C12.4167 15.8834 12.6333 16.1001 12.6333 16.3167V31.5267Z" fill="white"/>
<path d="M26.9334 14.5833H26.0234C24.3334 14.5833 22.73 15.32 21.69 16.49V15.8833C21.69 15.45 21.2567 15.0166 20.8234 15.0166H16.49C16.1 15.0166 15.6234 15.3633 15.6234 15.8399V32.0033C15.6234 32.4799 16.1 32.7833 16.49 32.7833H21.2567C21.6467 32.7833 22.1234 32.4799 22.1234 32.0033V22.6433C22.1234 21.2133 23.1634 20.0866 24.5067 20.0866C25.2 20.0866 25.85 20.3466 26.3267 20.8233C26.76 21.2133 26.9334 21.8199 26.9334 22.5999V31.9166C26.9334 32.3499 27.3667 32.7833 27.8001 32.7833H32.1334C32.5667 32.7833 33.0001 32.35 33.0001 31.9166V20.7366C33 17.27 30.3567 14.5833 26.9334 14.5833ZM32.1334 31.8733L32.09 31.9166H27.8434L27.8 22.6C27.8 21.56 27.54 20.78 26.9767 20.2167C26.3267 19.5667 25.46 19.22 24.55 19.22C22.73 19.2633 21.3 20.7367 21.3 22.6433V31.9166H16.5334V15.8833H20.8234L20.8667 15.9266V18.6566L22.0367 17.4866L22.08 17.4433C22.9467 16.23 24.4633 15.45 26.0667 15.45H26.9767C29.88 15.45 32.1334 17.79 32.1334 20.7367V31.8733Z" fill="white"/>
</g>
<defs>
<clipPath id="clip0">
<rect width="26" height="26" fill="white" transform="translate(7 7)"/>
</clipPath>
</defs>
</svg>
