<svg width="55" height="76" viewBox="0 0 55 76" fill="none" xmlns="http://www.w3.org/2000/svg">
<path d="M32.5591 32.5971L27.0507 37.9966C26.8397 38.2034 26.5591 38.3173 26.2608 38.3173C25.9626 38.3173 25.682 38.2035 25.4711 37.9966L19.9626 32.5971C19.1206 31.7719 17.7559 31.7719 16.914 32.5971C16.0722 33.4224 16.0722 34.7602 16.914 35.5854L22.4225 40.9848C23.4478 41.9899 24.8109 42.5435 26.2609 42.5435C27.7109 42.5435 29.074 41.9899 30.0994 40.9849L35.6078 35.5855C36.4496 34.7603 36.4496 33.4224 35.6078 32.5972C34.7659 31.7719 33.4009 31.7719 32.5591 32.5971Z" fill="#18A0FB"/>
<path d="M32.5591 44.3363L27.0507 49.7357C26.8397 49.9426 26.5591 50.0565 26.2608 50.0565C25.9626 50.0565 25.682 49.9426 25.4711 49.7357L19.9626 44.3363C19.1206 43.5111 17.7559 43.5111 16.914 44.3363C16.0722 45.1615 16.0722 46.4994 16.914 47.3246L22.4225 52.7239C23.4478 53.729 24.8109 54.2826 26.2609 54.2826C27.7109 54.2826 29.074 53.729 30.0994 52.724L35.6078 47.3246C36.4496 46.4994 36.4496 45.1615 35.6078 44.3363C34.7659 43.5111 33.4009 43.5111 32.5591 44.3363Z" fill="#2C2C2C"/>
<path d="M32.5591 56.0754L27.0507 61.4748C26.8397 61.6817 26.5591 61.7956 26.2608 61.7956C25.9626 61.7956 25.682 61.6818 25.4711 61.4748L19.9626 56.0754C19.1206 55.2502 17.7559 55.2502 16.914 56.0754C16.0722 56.9007 16.0722 58.2385 16.914 59.0637L22.4225 64.4631C23.4478 65.4682 24.8109 66.0217 26.2609 66.0217C27.7109 66.0217 29.074 65.4682 30.0994 64.4632L35.6078 59.0637C36.4496 58.2385 36.4496 56.9006 35.6078 56.0754C34.7659 55.2502 33.4009 55.2502 32.5591 56.0754Z" fill="#18A0FB"/>
<path d="M9.22787 22L5.21803 8.93383H5.1155C5.2598 11.5919 5.33194 13.3652 5.33194 14.2537V22H2.17647V5.34548H6.98373L10.9252 18.0813H10.9936L15.1743 5.34548H19.9815V22H16.6894V14.117C16.6894 13.7449 16.6932 13.3158 16.7008 12.8298C16.716 12.3437 16.7691 11.0527 16.8602 8.95662H16.7577L12.4631 22H9.22787ZM31.9997 22L31.3276 20.2685H31.2364C30.6517 21.0051 30.0479 21.5178 29.4252 21.8063C28.81 22.0873 28.005 22.2278 27.0102 22.2278C25.7875 22.2278 24.823 21.8785 24.1167 21.1798C23.418 20.4811 23.0687 19.4863 23.0687 18.1952C23.0687 16.8434 23.5395 15.8485 24.4812 15.2106C25.4305 14.5651 26.8583 14.2081 28.7645 14.1398L30.9744 14.0714V13.5133C30.9744 12.2222 30.3137 11.5767 28.9923 11.5767C27.9747 11.5767 26.7785 11.8843 25.4039 12.4994L24.2534 10.1527C25.7191 9.3857 27.3443 9.00218 29.129 9.00218C30.8377 9.00218 32.1478 9.37431 33.0591 10.1186C33.9704 10.8628 34.4261 11.9944 34.4261 13.5133V22H31.9997ZM30.9744 16.0992L29.6302 16.1447C28.6202 16.1751 27.8683 16.3574 27.3747 16.6915C26.8811 17.0257 26.6342 17.5345 26.6342 18.218C26.6342 19.1977 27.1962 19.6875 28.3202 19.6875C29.1252 19.6875 29.7669 19.4559 30.2454 18.9926C30.7314 18.5294 30.9744 17.9142 30.9744 17.1472V16.0992ZM37.8664 5.97202C37.8664 4.84045 38.4967 4.27467 39.7574 4.27467C41.018 4.27467 41.6484 4.84045 41.6484 5.97202C41.6484 6.51122 41.4889 6.93271 41.1699 7.23648C40.8585 7.53267 40.3877 7.68076 39.7574 7.68076C38.4967 7.68076 37.8664 7.11118 37.8664 5.97202ZM41.4889 22H38.0144V9.26419H41.4889V22ZM54.031 18.218C54.031 19.5242 53.5754 20.5191 52.6641 21.2026C51.7603 21.8861 50.4047 22.2278 48.5972 22.2278C47.6707 22.2278 46.8809 22.1633 46.2278 22.0342C45.5747 21.9127 44.9633 21.7304 44.3937 21.4874V18.6167C45.0393 18.9205 45.7645 19.1749 46.5695 19.3799C47.3821 19.585 48.096 19.6875 48.7112 19.6875C49.9718 19.6875 50.6022 19.323 50.6022 18.5939C50.6022 18.3205 50.5186 18.1003 50.3516 17.9332C50.1845 17.7585 49.8959 17.5649 49.4858 17.3522C49.0757 17.132 48.5289 16.8776 47.8454 16.589C46.8657 16.1789 46.1443 15.7992 45.681 15.4498C45.2253 15.1005 44.8912 14.7018 44.6785 14.2537C44.4735 13.798 44.371 13.2399 44.371 12.5791C44.371 11.4476 44.8076 10.5742 45.681 9.95908C46.5619 9.33634 47.8074 9.02497 49.4174 9.02497C50.9515 9.02497 52.4438 9.35912 53.8943 10.0274L52.8463 12.5336C52.2084 12.2602 51.6122 12.0361 51.0578 11.8615C50.5034 11.6868 49.9377 11.5995 49.3605 11.5995C48.3352 11.5995 47.8226 11.8767 47.8226 12.4311C47.8226 12.7424 47.9859 13.012 48.3125 13.2399C48.6466 13.4677 49.3719 13.8056 50.4883 14.2537C51.4831 14.6562 52.2122 15.0321 52.6754 15.3815C53.1387 15.7308 53.4804 16.1333 53.7007 16.589C53.9209 17.0447 54.031 17.5877 54.031 18.218Z" fill="#18A0FB"/>
<path d="M0.0804157 24.3353H54.9196V25.4972H0.0804157V24.3353Z" fill="#18A0FB"/>
</svg>
