<svg width="40" height="40" viewBox="0 0 40 40" fill="none" xmlns="http://www.w3.org/2000/svg">
<g clip-path="url(#clip0)">
<path d="M9.67438 37.1457C12.7649 39.0054 16.2985 39.9857 19.9292 39.9857C30.9311 39.9857 40 31.008 40 19.9927C40 8.99017 30.9439 0 19.9292 0C8.94806 0 0.0143433 8.96881 0.0143433 19.9927C0.0143433 23.6719 0.994873 27.2324 2.85431 30.3253L0 40L9.67438 37.1457ZM2.35748 19.9927C2.35748 10.2606 10.2402 2.34283 19.9292 2.34283C29.7043 2.34283 37.6572 10.2606 37.6572 19.9927C37.6572 29.725 29.7043 37.6425 19.9292 37.6425C16.5656 37.6425 13.2968 36.6898 10.4773 34.8868L10.0269 34.599L3.46527 36.535L5.401 29.9731L5.11322 29.523C3.31024 26.7029 2.35748 23.4076 2.35748 19.9927Z" fill="#18A0FB"/>
<path d="M9.73668 16.3089C10.1236 18.341 11.2723 22.2497 14.6167 25.5942C17.9612 28.9386 21.8699 30.0876 23.9023 30.4745C26.2296 30.9176 29.6448 30.9845 31.3138 29.3155L32.2443 28.385C32.714 27.9153 32.9728 27.2906 32.9728 26.6263C32.9728 25.9619 32.714 25.3375 32.2443 24.8678L28.5233 21.1468C28.0533 20.6769 27.4289 20.4184 26.7646 20.4184C26.1002 20.4184 25.4758 20.6769 25.0058 21.1468L24.0757 22.077C23.5074 22.6452 22.4347 22.6477 21.8622 22.084L18.1507 18.2168C18.1452 18.211 18.1397 18.2052 18.1339 18.1998C17.5647 17.6306 17.5647 16.7044 18.1339 16.1352L19.0641 15.2051C20.0364 14.2328 20.0364 12.6596 19.0641 11.6876L15.3431 7.9666C14.3735 6.99706 12.7958 6.99706 11.8259 7.9666L10.8957 8.89708V8.89677C9.56365 10.2292 9.11962 13.0691 9.73668 16.3089ZM12.5525 10.5539C13.5291 9.59959 13.4769 9.58128 13.5846 9.58128C13.6216 9.58128 13.6585 9.59532 13.6866 9.6234C17.6075 13.5654 17.45 13.3337 17.45 13.4466C17.45 13.486 17.4357 13.5205 17.4079 13.5486L16.4774 14.4787C14.9958 15.9604 14.99 18.3587 16.4679 19.8471L20.1816 23.7167C20.1874 23.7222 20.1929 23.728 20.1987 23.7338C21.68 25.2151 24.2463 25.22 25.7325 23.7338L26.6626 22.8036C26.7188 22.7475 26.8104 22.7475 26.8665 22.8036C30.7874 26.7453 30.6299 26.5137 30.6299 26.6266C30.6299 26.6662 30.6156 26.7004 30.5878 26.7285L29.6573 27.6587C29.0198 28.2962 26.9892 28.6777 24.3406 28.1732C22.573 27.8363 19.1742 26.8384 16.2735 23.9377C13.3729 21.037 12.3749 17.6382 12.0383 15.8707C11.5336 13.222 11.915 11.1911 12.5525 10.5539Z" fill="white"/>
</g>
<defs>
<clipPath id="clip0">
<rect width="40" height="40" fill="white"/>
</clipPath>
</defs>
</svg>
